<?xml version="1.0" encoding="UTF-8"?>
<svg width="207px" height="208px" viewBox="0 0 207 208" version="1.1" xmlns="http://www.w3.org/2000/svg" xmlns:xlink="http://www.w3.org/1999/xlink">
    <!-- Generator: Sketch 54.1 (76490) - https://sketchapp.com -->
    <title>rob-pointon-signature</title>
    <desc>Created with Sketch.</desc>
    <g id="Page-1" stroke="none" stroke-width="1" fill="none" fill-rule="evenodd">
        <g id="rob-pointon-signature" fill="#000000" fill-rule="nonzero">
            <path d="M133.29,122.91 C133.26,118.84 135.13,115.34 136.65,111.74 C137.12,110.62 138.12,109.6 138.2,108.48 C138.31,107.03 136.53,107.07 135.6,106.46 C134.99,106.06 134.16,106.07 134.09,105.07 C134.03,104.24 134.47,104.14 135.1,103.66 C138.29,101.23 141.62,103.2 144.83,103.08 C146,103.04 147.29,103.02 148.61,103.41 C152.85,104.68 153.65,108.19 154.62,111.66 C155.02,113.1 155.36,114.47 157.33,114.19 C157.56,114.16 157.8,114.23 158.03,114.26 C157.25,116.89 160.69,115.13 160.9,117.02 C160.99,117.78 162.2,117.97 163.23,117.79 C165.72,117.36 167.01,119.56 168.86,120.56 C169.05,120.66 169.29,120.66 169.5,120.71 C169.47,120.49 169.49,120.24 169.4,120.05 C165.86,112.88 162.25,105.74 158.79,98.53 C157.63,96.11 156.81,93.52 155.87,90.99 C155.49,89.97 156.15,89.4 156.98,89.04 C157.77,88.71 158.53,87.67 159.45,88.93 C159.73,89.31 160.25,89.52 160.65,89.81 C160.6,89.36 160.55,88.91 160.52,88.45 C160.48,87.91 160.22,87.26 160.78,86.89 C161.65,86.32 162.57,87.04 162.92,87.48 C165.04,90.26 168.83,91.33 170.29,94.73 C170.55,95.33 170.98,96.19 170.74,96.58 C170.27,97.36 169.9,96.34 169.44,96.19 C169.37,96.17 169.29,96.1 169.22,96.1 C168.77,96.11 168.76,96.54 168.9,96.69 C169.55,97.41 169.68,98.58 170.77,98.88 C170.86,98.9 171.18,98.45 171.22,98.19 C171.27,97.9 170.66,97.5 171.23,97.32 C171.53,97.22 172.03,97.44 172.31,97.68 C174.54,99.59 176.8,101.47 178.93,103.49 C179.79,104.31 180.71,105.05 181.54,105.85 C185.14,109.34 189.72,111.16 193.95,113.59 C194.27,113.77 194.68,113.79 195.05,113.88 C194.87,113.59 194.68,113.31 194.52,113.02 C193.36,110.89 192.45,108.56 190.97,106.68 C189.48,104.79 188.76,102.46 187,100.69 C185.97,99.66 186.18,97.32 185.12,96.39 C182.45,94.07 182.7,90.19 179.98,87.88 C178.54,86.66 177.92,84.51 176.82,82.85 C176.43,82.26 175.78,81.8 175.15,81.43 C172.83,80.05 172.7,77.39 171.58,75.33 C170.82,73.93 169.73,73 168.73,71.88 C166.79,69.72 165.55,66.95 163.2,65.13 C162.55,64.62 161.39,63.89 161.25,63.62 C159.86,60.98 156.6,59.64 156.21,56.36 C156.18,56.09 156.27,55.33 155.48,56.1 C154.74,56.82 154.43,55.6 154.04,55.19 C149.25,50.08 144.56,44.87 139.71,39.82 C135.54,35.47 131.26,31.23 126.93,27.04 C121.81,22.08 116.82,16.98 111.34,12.38 C107.59,9.23 104.02,5.86 100.42,2.54 C99.95,2.11 99.03,1.47 99.59,0.79 C100.22,0.02 100.56,1.21 101.08,1.43 C104.49,2.88 106.9,5.96 110.1,7.5 C112.43,8.63 113.56,10.91 115.98,11.92 C117.28,12.47 118.77,14.1 119.89,15.45 C121.21,17.03 123.07,17.73 124.62,18.85 C128.56,21.71 132.78,24.09 136.03,27.9 C138.28,30.55 141.04,32.78 143.63,35.13 C144.55,35.97 145.94,35.55 147.1,36.39 C148.31,37.27 148.75,38.42 149.44,39.5 C150,40.38 150.15,41.53 151.6,41.6 C152.24,41.63 152.51,42.42 152.6,43.09 C152.84,44.84 153.69,46.15 155.59,45.42 C157.81,44.56 158.58,46.43 159.51,47.41 C162.54,50.61 165.48,53.88 168.2,57.39 C172.08,62.39 176.16,67.24 179.63,72.54 C182.37,76.72 185.16,80.88 187.82,85.12 C191.11,90.36 194.25,95.69 197.08,101.2 C199.63,106.15 202.48,110.94 204.94,115.92 C205.9,117.86 207.05,119.92 206.43,122.36 C205.8,124.83 203.19,125.83 200.89,124.72 C199.66,124.12 197.89,124.59 196.71,123.95 C194.92,122.99 193.13,121.76 191.33,121.02 C186.48,119.03 182.12,116.22 177.66,113.59 C175.32,112.21 173.13,110.4 171.68,107.93 C171.5,107.63 171.13,107.44 170.85,107.2 C170.95,107.56 170.99,107.94 171.15,108.27 C173.56,113.11 175.89,117.98 178.44,122.74 C179.7,125.1 181.29,127.29 182.02,129.92 C182.29,130.88 182.41,131.84 180.83,131.62 C180.51,131.58 179.87,131.86 179.84,132.06 C179.27,135.96 176.64,133.48 175.43,133.12 C171.64,132.01 169.16,128.77 166.11,126.44 C163.91,124.76 161.78,123.04 159.21,121.92 C157.77,121.29 156.4,120.48 155,119.74 C153.81,119.11 153.14,119.3 152.87,120.77 C152.17,124.54 148.52,127.91 144.71,128.41 C142.85,128.66 141.44,130.19 139.45,130.14 C135.09,130.04 133.37,128.32 133.3,123.85 C133.33,123.55 133.31,123.23 133.29,122.91 Z M139.88,121.92 C140.01,123.13 139.82,124.69 141.06,125.13 C142.15,125.52 142.64,123.99 143.42,123.34 C145.09,121.94 145.39,119.65 146.86,118.12 C147.69,117.25 148.12,115.88 147.49,115.23 C146.2,113.9 144.89,112.42 143.01,111.81 C142.88,111.77 142.5,112.09 142.43,112.3 C141.32,115.45 140.2,118.59 139.88,121.92 Z M180.09,129.44 C179.54,128.14 179.07,126.89 178.48,125.69 C175.8,120.21 173.09,114.74 170.4,109.27 C170.22,108.91 170.04,108.56 169.89,108.19 C169.64,107.55 169.19,107.65 169.2,108.17 C169.21,108.86 169.33,109.67 170.05,110.14 C170.2,110.24 170.38,110.37 170.45,110.52 C172.04,114.28 173.69,118 175.15,121.81 C175.78,123.46 177.65,124.38 177.69,126.26 C177.72,127.7 178.64,128.53 179.48,129.45 C179.59,129.57 179.81,129.6 179.99,129.64 C180,129.65 180.07,129.47 180.09,129.44 Z M139.07,126.05 C138.82,124.54 138.43,123.29 138.45,122.05 C138.52,118.35 139.7,114.91 141.16,111.55 C141.3,111.23 141.24,110.82 141.27,110.45 C141.14,110.58 140.93,110.68 140.88,110.83 C139.67,114.15 137.61,117.19 137.18,120.74 C136.99,122.29 136.59,124.09 137.7,125.57 C137.96,125.91 138.45,126.08 138.86,126.27 C138.92,126.29 139.12,125.99 139.07,126.05 Z" id="Shape"></path>
            <path d="M152.65,203.35 C150.68,199.53 148.35,195.86 146.79,191.88 C144.25,185.38 141.45,178.97 139.75,172.15 C139.35,170.57 139.13,168.96 138.13,167.28 C136.44,164.47 135.97,160.75 135.66,157.36 C135.34,153.78 134.44,150.33 133.97,146.79 C133.2,141.03 131.66,135.37 130.31,129.7 C128.92,123.91 127.65,118.08 125.79,112.44 C124.33,107.99 123.61,103.35 121.81,98.98 C120.6,96.04 120.34,92.72 119.32,89.68 C118.42,87 119.24,84.05 117.79,81.51 C117.67,81.31 117.81,80.98 117.77,80.72 C117.52,79.06 118.87,78.86 119.87,78.14 C125.4,74.13 131.22,70.68 137.38,67.68 C139.63,66.59 143.46,65.81 142.51,61.49 C142.41,61.02 142.56,60.18 142.56,59.51 C141.63,60.43 140.36,59.41 139.26,60.22 C137.04,61.85 134.77,63.57 132.26,64.59 C129.42,65.75 126.97,67.49 124.48,69.11 C121.99,70.73 119.46,72.66 116.62,72.23 C113.75,71.79 113.35,72.62 113.68,75.06 C113.55,75.51 113.83,76.01 113.1,76.58 C111.19,78.06 109.08,79.2 107.11,80.56 C102.29,83.9 97.63,87.49 92.79,90.81 C92.25,91.18 90.96,92.44 90.58,91.62 C87.39,84.84 84.44,77.95 81.37,71.12 C78.25,64.18 75.9,56.82 70.59,51.05 C70.43,50.88 70.26,50.51 70.33,50.38 C71.09,49.02 70.64,48.51 69.18,48.55 C68.9,48.56 68.61,48.33 68.32,48.2 C68.36,48.11 68.4,47.95 68.45,47.94 C69.75,47.82 68.9,47 68.76,46.66 C68.21,45.24 67.57,43.84 66.87,42.48 C66.44,41.64 65.7,41.63 64.93,42.11 C64.57,42.33 65.18,43.28 64.43,43 C63.89,42.79 63.47,42.09 63.17,41.52 C63.03,41.26 63.29,40.78 63.36,40.4 C61.56,40.18 61.01,38.05 59.28,37.71 C59.08,37.67 58.81,37.49 58.76,37.32 C58.65,36.95 58.94,36.97 59.2,37.03 C59.34,37.06 59.48,37.06 59.61,37.05 C59.57,37.01 59.54,36.97 59.51,36.93 C58.75,36.29 58.24,35.42 57.99,34.46 C57.91,34.48 57.82,34.51 57.77,34.55 C57.58,34.71 57.43,34.91 57.27,35.09 C57.32,34.8 57.45,34.5 57.41,34.23 C57.35,33.87 57.24,33.46 57.01,33.2 C56.84,33.01 56.44,33.04 56.14,32.97 C56.13,33.3 56.06,33.65 56.12,33.96 C56.61,36.44 57.12,38.92 58.2,41.23 C58.62,42.12 58.84,43.11 59.25,44.01 C60.35,46.38 61.28,48.81 62.67,51.06 C63.65,52.65 64.09,54.56 64.96,56.23 C65.99,58.22 68.29,59.49 68.36,62.04 C68.42,64.53 69.37,66.77 71.14,68.3 C72.93,69.84 74.53,71.28 74.8,73.75 C74.88,74.45 74.72,75.27 75.05,75.82 C76.08,77.57 77.37,79.18 76.86,81.41 C76.85,81.45 76.88,81.49 76.88,81.53 C77.09,84.18 79.73,85.39 80.54,87.63 C82.3,92.5 84.07,97.33 86.13,102.1 C88.13,106.73 89.74,111.58 91.18,116.48 C92.9,122.33 94.87,128.11 95.99,134.12 C96.02,134.27 96.21,134.85 95.81,134.58 C94.46,133.68 92.74,132.9 92,131.59 C89.59,127.34 85.6,124.15 84.18,119.21 C83.32,116.22 81.3,113.54 80.65,110.53 C79.96,107.32 78.5,106.64 75.46,106.52 C72.66,106.41 72.34,107.74 72.71,109.6 C73.9,115.68 74.94,121.83 76.72,127.75 C78.65,134.2 79.72,140.74 80.53,147.37 C80.61,148.02 80.54,149.28 81.78,149.11 C83.16,148.93 84.49,148.35 85.87,148.23 C87.23,148.11 87.59,147.5 87.46,146.29 C87.16,143.57 86.88,140.85 86.59,138.13 C86.56,137.84 86.59,137.54 86.59,137.25 C86.86,137.38 87.18,137.46 87.41,137.65 C88.99,138.98 90.48,140.45 92.15,141.65 C93.74,142.79 95.46,142.11 97.27,141.98 C99.31,141.83 100.98,140.92 102.87,140.61 C103.21,140.55 104.37,140.23 103.9,139.64 C101.64,136.82 103.15,133.48 102.5,130.42 C101.14,124.07 99.76,117.76 97.62,111.63 C95.96,106.87 94.22,102.13 92.67,97.33 C92.42,96.57 92.83,94.62 93.56,94.95 C95.71,95.92 96.18,93.55 96.83,93.04 C98.96,91.35 101.17,89.81 103.42,88.29 C106.47,86.23 109.51,84.15 112.54,82.05 C112.96,81.76 113.39,81.52 113.63,82.05 C114.15,83.2 114.75,84.37 114.96,85.6 C116.15,92.4 117.8,99.09 119.52,105.78 C121.6,113.88 123.75,121.98 125.66,130.13 C127.32,137.22 128.49,144.38 129.77,151.52 C130.64,156.37 131.41,161.24 132.26,166.1 C133.27,171.85 135.03,177.42 136.84,182.94 C139.45,190.91 142.36,198.79 146.84,205.98 C147.78,207.49 148.84,207.35 150.07,206.76 C151.36,206.14 150.71,204.96 150.73,203.99 C150.74,203.58 150.01,203.4 150.36,202.87 C150.64,203.24 150.94,203.6 151.21,203.99 C151.7,204.7 152.28,205.85 153.08,205.41 C153.83,205.04 153,204.03 152.65,203.35 Z" id="Path"></path>
            <path d="M43.63,132.97 C40.51,133.71 37.09,132.35 34.07,130.73 C31.81,129.52 29.59,127.45 29.42,124.22 C29.36,122.93 28.66,121.68 28.24,120.42 C28.22,120.35 28.1,120.3 28.03,120.24 C27.98,120.39 27.91,120.54 27.89,120.69 C27.35,125.19 27.01,129.74 26.21,134.19 C25.52,137.99 25.03,141.8 24.54,145.63 C24.09,149.09 24.8,152.75 22.86,155.94 C22.6,156.37 23.19,158.03 21.28,157.01 C19.67,156.15 20.24,158.31 20.15,158.95 C19.61,162.54 20.02,166.4 18.41,169.66 C16.8,172.91 18.44,176.61 16.4,179.66 C15.96,180.31 15.88,181.2 15.63,181.98 C15.04,181.2 14.29,180.5 13.88,179.63 C12.74,177.21 13.41,174.65 13.77,172.22 C14.62,166.35 15.62,160.5 16.05,154.57 C16.4,149.71 16.64,144.83 17.31,140.01 C17.94,135.46 19.52,131.02 19.88,126.47 C20.26,121.6 22.44,117.23 22.92,112.49 C23.24,109.3 24.35,106.21 24.21,103.05 C24.16,101.82 24.55,100.94 24.77,99.89 C24.9,99.24 25.46,98.42 24.67,97.94 C24.49,97.83 23.66,98.61 23.27,99.09 C19.87,103.22 16.37,107.27 14.31,112.31 C13.36,114.62 13.83,117.5 12.14,119.36 C9.67,122.08 11.99,125.19 10.92,127.98 C10.57,128.9 10.08,129.34 9.34,129.42 C8.27,129.53 8.99,128.49 8.72,128.14 C7.37,126.41 7.24,124.18 6.23,122.31 C5.69,121.3 6.41,120.09 6.3,118.89 C5.98,115.39 6.5,111.82 7.96,108.69 C8.69,107.13 8.92,105.22 10.59,103.83 C11.75,102.86 12.74,100.96 13.05,99.06 C13.27,97.7 14.25,96.88 15.5,96.22 C16.19,95.86 16.5,94.84 17.05,94.18 C19.48,91.27 22.46,88.91 25.05,86.17 C27.02,84.09 26.42,81.3 26.44,78.59 C26.45,76.72 26.82,74.66 26.96,72.69 C27.41,66.21 27.89,59.72 27.96,53.23 C27.97,51.94 26.29,50.55 25.24,49.33 C21.9,45.44 17.9,42.28 14.78,38.05 C9.56,30.96 4.76,23.68 0.4,16.06 C0.11,15.55 -0.3,14.93 0.42,14.48 C1.1,14.05 1.7,14.08 2.46,14.67 C6.99,18.27 9.35,23.49 12.62,28.03 C14.65,30.85 17.23,33.28 19.26,36.1 C21.73,39.52 25.27,41.83 27.97,44.99 C28.16,45.22 28.46,45.35 28.71,45.52 C28.85,45.25 29.04,44.99 29.11,44.7 C29.31,43.85 29.38,42.96 29.64,42.13 C30.02,40.92 30.32,39.17 31.95,39.57 C33.24,39.88 32.21,41.45 32.04,42.16 C30.78,47.4 31.41,48.64 35.32,52.1 C38.9,55.28 42.35,58.63 45.11,62.71 C46.81,65.23 48.2,67.52 48.31,70.62 C48.41,73.35 46.68,74.25 44.62,74.71 C43.47,74.97 42.71,75.71 42.48,76.47 C40.75,82.03 36.15,85.27 32.47,89.27 C31.27,90.58 30.34,91.85 30.02,93.88 C29.08,99.87 29.41,106 27.77,111.92 C27.28,113.69 28.24,115.82 27.83,117.82 C27.79,118.04 28.22,118.35 28.43,118.62 C28.46,118.35 28.52,118.08 28.52,117.8 C28.53,112.02 30.76,107.23 34.94,103.3 C35.14,103.12 35.34,102.59 35.28,102.53 C33.8,101.27 34.83,99.63 34.68,98.2 C34.59,97.32 35.54,96.74 36.4,96.78 C38.23,96.86 40.04,97.12 41.86,97.33 C42.08,97.36 42.48,97.53 42.47,97.62 C42.26,101.03 45.98,100.34 47.35,102.3 C49.25,105 52.58,106.61 53.13,110.38 C53.81,114.97 54.99,119.51 55.36,124.13 C55.72,128.61 50.4,133.2 45.76,132.97 C45.24,132.95 44.73,132.97 43.63,132.97 Z M40.44,128.66 C42.72,129.02 44.5,128.21 46.35,128.02 C48.98,127.74 49.31,126.02 48.96,123.89 C48.84,123.16 48.59,122.45 48.39,121.73 C47.01,116.65 47.23,111.1 43.29,106.8 C41.02,104.33 39.23,103.59 37.35,105.42 C36.68,106.07 36.1,106.83 35.58,107.6 C33.52,110.61 32.88,114.2 32.85,117.6 C32.83,121.37 33.36,125.37 36.95,128.04 C38.07,128.87 37.45,126.59 37.82,127.61 C38.46,129.35 39.78,128.48 40.44,128.66 Z M41.69,67.41 C41.82,67.74 41.71,67.06 41.33,66.6 C38.89,63.66 36.68,60.5 33.65,58.09 C32.92,57.51 31.61,56.38 31.48,56.51 C30.46,57.43 30.91,58.8 30.87,60 C30.79,62.97 30.83,65.94 30.74,68.91 C30.62,72.84 30.42,76.77 30.27,80.71 C30.26,81.02 30.38,81.33 30.44,81.63 C30.69,81.42 30.92,81.08 31.21,81.02 C32.58,80.73 32.74,79.29 33.65,78.56 C35.35,77.21 37.06,75.84 36.94,73.28 C36.89,72.16 37.54,71.6 38.71,71.25 C40.13,70.83 42.27,70.89 41.69,67.41 Z" id="Shape"></path>
            <path d="M67.8,94.47 C68.35,99.99 68.97,105.34 69.38,110.7 C69.87,117.07 70.18,123.46 70.58,129.83 C70.8,133.45 71.41,137.1 71.17,140.69 C70.89,144.9 71.86,148.92 72.08,153.04 C72.4,159.25 72.46,165.46 73.17,171.65 C73.73,176.55 74.24,181.44 75.9,186.14 C76.61,188.16 76.9,190.33 77.35,192.44 C77.41,192.72 77.25,193.05 77.19,193.36 C77.03,193.29 76.86,193.24 76.73,193.14 C76.29,192.8 76.42,191.99 75.69,191.88 C75.88,192.74 74.6,192.91 74.8,193.96 C74.9,194.49 74.1,195.68 73.63,195.73 C72.32,195.85 72.16,194.33 71.87,193.56 C71.21,191.82 70.46,189.95 71.25,187.98 C71.29,187.88 71.22,187.74 71.21,187.62 C68.69,188.65 69.9,186.18 69.27,185.45 C69.09,185.24 69.69,184.7 69.55,183.82 C69.02,180.48 66.83,177.48 67.74,173.78 C68.26,171.68 67.63,169.39 67.21,167.15 C66.74,164.67 66.51,162.07 66.61,159.45 C66.73,156.47 65.73,153.52 65.58,150.47 C65.18,142.57 64.62,134.67 63.85,126.8 C63.39,122.12 62.85,117.44 63.04,112.75 C63.15,109.94 63.71,107.14 64.77,104.43 C65.71,102.03 64.72,99.35 64.98,96.8 C65.03,96.33 64.93,95.8 65.11,95.4 C65.72,94.02 66.19,92.91 63.81,93.42 C63.32,93.53 62.12,92.73 62.16,92.59 C62.4,91.67 63.4,91.71 64.04,91.8 C65.74,92.06 68.72,90.82 67.8,94.47 Z" id="Path"></path>
        </g>
    </g>
</svg>